<svg width="47" height="48" viewBox="0 0 47 48" fill="none" xmlns="http://www.w3.org/2000/svg">
<path d="M32.0187 12.389C32.7507 13.121 33.9367 13.123 34.6687 12.389L37.2767 9.781C38.0077 9.049 38.0057 7.863 37.2767 7.13L30.6937 0.549C29.9637 -0.183 28.7777 -0.183 28.0457 0.549L25.4367 3.157C24.7067 3.889 24.7067 5.075 25.4367 5.805L32.0187 12.389Z" fill="url(#paint0_linear_101340_375)"/>
<path d="M16.4328 28.2652C17.1638 28.9942 18.3498 28.9942 19.0808 28.2652L21.6898 25.6553C22.4218 24.9253 22.4218 23.7383 21.6898 23.0063L15.1068 16.4233C14.3758 15.6933 13.1898 15.6913 12.4578 16.4233L9.84976 19.0312C9.11776 19.7632 9.11976 20.9492 9.84976 21.6812L16.4328 28.2652Z" fill="url(#paint1_linear_101340_375)"/>
<path d="M46.3149 28.8912L43.6679 26.2412C42.9339 25.5112 41.7509 25.5112 41.0199 26.2412L39.8589 27.4012L28.6539 16.1942L31.0809 13.7662L24.3479 7.03516L21.9199 9.46316L18.8279 12.5532L16.4539 14.9272L23.1859 21.6602L25.5629 19.2872L36.7659 30.4922L35.7179 31.5412C34.9859 32.2702 34.9839 33.4572 35.7179 34.1892L38.3649 36.8372C39.0989 37.5712 40.2839 37.5712 41.0149 36.8372L46.3139 31.5402C47.0469 30.8072 47.0469 29.6232 46.3149 28.8912Z" fill="url(#paint2_linear_101340_375)"/>
<path d="M26.7437 36.9425C26.7437 35.7435 25.7717 34.7695 24.5707 34.7695H7.60275C6.40275 34.7695 5.42975 35.7435 5.42975 36.9425V40.4695H0.666748V47.8585H31.2247V40.4695H26.7437V36.9425Z" fill="url(#paint3_linear_101340_375)"/>
<defs>
<linearGradient id="paint0_linear_101340_375" x1="31.3567" y1="0" x2="31.3567" y2="12.9388" gradientUnits="userSpaceOnUse">
<stop stop-color="#EF8080"/>
<stop offset="1" stop-color="#F0145A"/>
</linearGradient>
<linearGradient id="paint1_linear_101340_375" x1="15.7701" y1="15.875" x2="15.7701" y2="28.812" gradientUnits="userSpaceOnUse">
<stop stop-color="#EF8080"/>
<stop offset="1" stop-color="#F0145A"/>
</linearGradient>
<linearGradient id="paint2_linear_101340_375" x1="31.6588" y1="7.03516" x2="31.6588" y2="37.3877" gradientUnits="userSpaceOnUse">
<stop stop-color="#EF8080"/>
<stop offset="1" stop-color="#F0145A"/>
</linearGradient>
<linearGradient id="paint3_linear_101340_375" x1="15.9457" y1="34.7695" x2="15.9457" y2="47.8585" gradientUnits="userSpaceOnUse">
<stop stop-color="#EF8080"/>
<stop offset="1" stop-color="#F0145A"/>
</linearGradient>
</defs>
</svg>
